<svg width="43" height="48" viewBox="0 0 43 48" fill="none" xmlns="http://www.w3.org/2000/svg">
<path d="M3 44.51C4.01452 40.4413 6.33845 36.819 9.61392 34.2008C12.8894 31.5827 16.9347 30.1139 21.127 30.0207C25.3192 29.9274 29.4258 31.215 32.8144 33.685C36.203 36.155 38.6856 39.6705 39.88 43.69" stroke="#f5f5f5" stroke-width="5" stroke-linecap="round" stroke-linejoin="round"/>
<path d="M22.36 22.01H20.51C18.192 22.01 15.9689 21.0892 14.3299 19.4501C12.6908 17.8111 11.77 15.588 11.77 13.27V12.47C11.77 9.95843 12.7677 7.54965 14.5437 5.77368C16.3196 3.99771 18.7284 3 21.24 3C22.5365 2.99868 23.8205 3.25311 25.0186 3.74866C26.2167 4.24421 27.3053 4.97116 28.2221 5.88794C29.1388 6.80472 29.8658 7.89329 30.3613 9.09137C30.8569 10.2894 31.1113 11.5735 31.11 12.87V13.27C31.11 15.588 30.1892 17.8111 28.5501 19.4501C26.911 21.0892 24.688 22.01 22.37 22.01H22.36Z" stroke="#f5f5f5" stroke-width="5" stroke-linecap="round" stroke-linejoin="round"/>
</svg>
