<svg width="46" height="46" viewBox="0 0 46 46" fill="none" xmlns="http://www.w3.org/2000/svg">
<path d="M32.78 30.0054C30.3388 33.1026 26.8791 35.2347 23.015 36.0232C19.1509 36.8117 15.1325 36.2056 11.6729 34.3125C8.21328 32.4193 5.53637 29.3616 4.1173 25.6821C2.69822 22.0026 2.62876 17.9392 3.92127 14.2134C5.21377 10.4875 7.78462 7.34009 11.1775 5.32981C14.5704 3.31954 18.5658 2.57642 22.4545 3.2324C26.3433 3.88839 29.8738 5.90104 32.4195 8.91307C34.9652 11.9251 36.3613 15.7417 36.36 19.6854C36.3593 20.8618 36.2353 22.0349 35.99 23.1854" stroke="#3A4651" stroke-width="5" stroke-linecap="round" stroke-linejoin="round"/>
<path d="M31.59 31.5953L43.37 43.3754" stroke="#3A4651" stroke-width="5" stroke-miterlimit="10" stroke-linecap="round"/>
</svg>
