<svg width="46" height="48" viewBox="0 0 46 48" fill="none" xmlns="http://www.w3.org/2000/svg">
<path d="M38.8009 45H6.58094C6.08652 45.003 5.60849 44.8227 5.23915 44.494C4.8698 44.1653 4.63532 43.7115 4.58094 43.22L3.00096 19.51C2.99263 19.2451 3.03865 18.9813 3.13621 18.7349C3.23377 18.4885 3.38079 18.2647 3.56819 18.0773C3.75559 17.8898 3.97942 17.7428 4.22584 17.6453C4.47226 17.5477 4.73606 17.5017 5.00096 17.51H40.7109C41.2414 17.51 41.7501 17.7207 42.1252 18.0958C42.5002 18.4709 42.7109 18.9796 42.7109 19.51L40.8009 43.24C40.742 43.7278 40.5055 44.1769 40.1366 44.5015C39.7678 44.8261 39.2923 45.0036 38.8009 45V45Z" stroke="#f5f5f5" stroke-width="5" stroke-linecap="round" stroke-linejoin="round"/>
<path d="M12.851 24V13C12.851 10.3478 13.9045 7.80429 15.7799 5.92892C17.6553 4.05356 20.1988 3 22.851 3C25.5031 3 28.0467 4.05356 29.922 5.92892C31.7974 7.80429 32.851 10.3478 32.851 13V24" stroke="#f5f5f5" stroke-width="5" stroke-linecap="round" stroke-linejoin="round"/>
</svg>
